<svg xmlns="http://www.w3.org/2000/svg" height="800" width="1200" viewBox="-2.329605 -4.501875 20.18991 27.01125"><path d="M6.4537 10.2097l-2.4289-3.358v3.358H0V0h5.3023l2.4641 3.4544L10.2299 0h5.3008v10.2097h-4.023v-3.358l-2.4293 3.358zm3.924 5.0811h-.0194c-.073.1372-.3299.182-.4844.2088-.9797.1733-2.1975.1733-2.1975 1.0887 0 .5779.5035.9349 1.0524.9349.888 0 1.6489-.5592 1.6489-1.4824zm.3125 2.612c-.157 0-.2868-.1288-.2868-.2897l-.0243-.371c-.4304.5326-.7804.7654-1.6955.7654-.8777 0-1.5832-.4261-1.5832-1.372 0-1.3059 1.29-1.4368 2.535-1.5821.477-.0452.7423-.163.7423-.6707 0-.6565-.6555-.855-1.3424-.855-.7231 0-1.369.3294-1.3959 1.091h-.283s-.3097-.003-.2483-.3393c.1895-.8573 1.0315-1.2326 2-1.2326.8318 0 1.846.2459 1.846 1.5095v2.49c0 .559.0684.8565.0684.8565zm1.2944-4.7188h.2885v.5158h.0198c.3235-.5426 1.0802-.653 1.4432-.653 1.3272 0 1.7946.9772 1.7946 1.822v2.7443c0 .1609-.1277.2897-.285.2897h-.291v-2.9426c0-.8054-.3317-1.3624-1.2644-1.3624-.8386 0-1.3879.6308-1.4172 1.554v2.751h-.2903c-.1577 0-.285-.1288-.285-.2897v-4.1416c0-.1587.1273-.2875.285-.2875M5.54 11.7944a.2876.2876 0 01.2604-.1658h.3288a.2875.2875 0 01.2871.2875v5.697a.2877.2877 0 01-.2871.2897h-.2946l.0067-5.425-2.334 5.425h-.5969l-2.334-5.425.006 5.425h-.296C.1278 17.9028 0 17.774 0 17.613v-5.697a.2869.2869 0 01.2865-.2875h.3298a.2892.2892 0 01.2614.1658l2.3305 5.4028z" fill="#ba9761"/></svg>